<svg width="158" height="53" viewBox="0 0 158 53" fill="none" xmlns="http://www.w3.org/2000/svg">
<path d="M20.608 27.76C20.608 26.992 20.464 26.272 20.176 25.6C19.92 24.896 19.536 24.288 19.024 23.776C18.512 23.264 17.904 22.864 17.2 22.576C16.528 22.256 15.792 22.096 14.992 22.096C14.224 22.096 13.504 22.24 12.832 22.528C12.16 22.816 11.568 23.216 11.056 23.728C10.576 24.24 10.176 24.848 9.856 25.552C9.568 26.224 9.424 26.944 9.424 27.712C9.424 28.48 9.568 29.2 9.856 29.872C10.144 30.544 10.544 31.136 11.056 31.648C11.568 32.128 12.16 32.528 12.832 32.848C13.536 33.136 14.272 33.28 15.04 33.28C15.808 33.28 16.528 33.136 17.2 32.848C17.872 32.56 18.448 32.16 18.928 31.648C19.44 31.136 19.84 30.544 20.128 29.872C20.448 29.2 20.608 28.496 20.608 27.76ZM9.664 52.288H0.976V15.376H9.664V18.112C11.52 15.776 14.048 14.608 17.248 14.608C19.008 14.608 20.64 14.96 22.144 15.664C23.68 16.336 25.008 17.264 26.128 18.448C27.248 19.632 28.112 21.024 28.72 22.624C29.36 24.224 29.68 25.936 29.68 27.76C29.68 29.584 29.36 31.28 28.72 32.848C28.112 34.416 27.248 35.792 26.128 36.976C25.04 38.16 23.744 39.088 22.24 39.76C20.736 40.432 19.104 40.768 17.344 40.768C14.272 40.768 11.712 39.712 9.664 37.6V52.288ZM42.6963 27.616C42.6963 28.416 42.8403 29.168 43.1283 29.872C43.4163 30.544 43.8003 31.136 44.2803 31.648C44.7923 32.16 45.3843 32.56 46.0563 32.848C46.7603 33.136 47.5123 33.28 48.3123 33.28C49.0803 33.28 49.8003 33.136 50.4723 32.848C51.1763 32.56 51.7683 32.16 52.2483 31.648C52.7603 31.136 53.1603 30.544 53.4483 29.872C53.7683 29.2 53.9283 28.48 53.9283 27.712C53.9283 26.944 53.7683 26.224 53.4483 25.552C53.1603 24.848 52.7603 24.24 52.2483 23.728C51.7683 23.216 51.1763 22.816 50.4723 22.528C49.8003 22.24 49.0803 22.096 48.3123 22.096C47.5123 22.096 46.7603 22.24 46.0563 22.528C45.3843 22.816 44.7923 23.216 44.2803 23.728C43.8003 24.24 43.4163 24.832 43.1283 25.504C42.8403 26.144 42.6963 26.848 42.6963 27.616ZM53.6403 15.376H62.3763V40H53.6403V37.264C51.7843 39.6 49.2723 40.768 46.1043 40.768C44.3123 40.768 42.6643 40.448 41.1603 39.808C39.6563 39.136 38.3443 38.208 37.2243 37.024C36.1043 35.84 35.2243 34.448 34.5843 32.848C33.9763 31.248 33.6723 29.504 33.6723 27.616C33.6723 25.856 33.9763 24.192 34.5843 22.624C35.1923 21.024 36.0403 19.632 37.1283 18.448C38.2163 17.264 39.5123 16.336 41.0163 15.664C42.5203 14.96 44.1843 14.608 46.0083 14.608C49.0803 14.608 51.6243 15.68 53.6403 17.824V15.376ZM76.9765 0.159998V24.256L86.0965 15.376H98.0005L85.6645 26.752L98.7205 40H86.5285L76.9765 29.968V40H68.2885V0.159998H76.9765ZM108.372 27.568C108.372 28.4 108.516 29.168 108.804 29.872C109.124 30.544 109.524 31.136 110.004 31.648C110.516 32.16 111.108 32.56 111.78 32.848C112.484 33.136 113.22 33.28 113.988 33.28C114.756 33.28 115.476 33.136 116.148 32.848C116.852 32.56 117.444 32.16 117.924 31.648C118.436 31.136 118.836 30.544 119.124 29.872C119.444 29.168 119.604 28.416 119.604 27.616C119.604 26.848 119.444 26.128 119.124 25.456C118.836 24.752 118.436 24.144 117.924 23.632C117.444 23.12 116.852 22.72 116.148 22.432C115.476 22.144 114.756 22 113.988 22C113.22 22 112.484 22.144 111.78 22.432C111.108 22.72 110.516 23.12 110.004 23.632C109.524 24.144 109.124 24.736 108.804 25.408C108.516 26.08 108.372 26.8 108.372 27.568ZM99.2035 27.472C99.2035 25.648 99.5715 23.952 100.308 22.384C101.044 20.784 102.068 19.408 103.38 18.256C104.692 17.072 106.244 16.144 108.036 15.472C109.86 14.8 111.844 14.464 113.988 14.464C116.1 14.464 118.052 14.8 119.844 15.472C121.668 16.112 123.236 17.024 124.548 18.208C125.892 19.36 126.932 20.752 127.668 22.384C128.404 23.984 128.772 25.76 128.772 27.712C128.772 29.664 128.388 31.456 127.62 33.088C126.884 34.688 125.86 36.08 124.548 37.264C123.236 38.416 121.652 39.312 119.796 39.952C117.972 40.592 115.988 40.912 113.844 40.912C111.732 40.912 109.78 40.592 107.988 39.952C106.196 39.312 104.644 38.4 103.332 37.216C102.052 36.032 101.044 34.624 100.308 32.992C99.5715 31.328 99.2035 29.488 99.2035 27.472ZM142.461 0.159998V40H133.773V0.159998H142.461ZM157.086 15.376V40H148.398V15.376H157.086ZM147.822 5.92C147.822 5.248 147.95 4.624 148.206 4.048C148.462 3.44 148.814 2.912 149.262 2.464C149.71 2.016 150.222 1.664 150.798 1.408C151.406 1.152 152.046 1.024 152.718 1.024C153.39 1.024 154.014 1.152 154.59 1.408C155.198 1.664 155.726 2.016 156.174 2.464C156.622 2.912 156.974 3.44 157.23 4.048C157.486 4.624 157.614 5.248 157.614 5.92C157.614 6.592 157.486 7.232 157.23 7.84C156.974 8.416 156.622 8.928 156.174 9.376C155.726 9.824 155.198 10.176 154.59 10.432C154.014 10.688 153.39 10.816 152.718 10.816C152.046 10.816 151.406 10.688 150.798 10.432C150.222 10.176 149.71 9.824 149.262 9.376C148.814 8.928 148.462 8.416 148.206 7.84C147.95 7.232 147.822 6.592 147.822 5.92Z" fill="#212120"/>
</svg>
