<svg width="82" height="52" viewBox="0 0 82 52" fill="none" xmlns="http://www.w3.org/2000/svg">
<path d="M78.1875 23.1846C79.709 21.0901 79.9385 18.3368 78.1875 16.4881C74.9065 13.0268 72.2885 8.73947 68.489 5.95664C63.9245 2.61331 57.4985 2.88864 52.288 3.65564C47.987 4.28497 44.4425 5.33714 40.3455 6.98914C38.161 7.86431 35.016 9.09348 32.755 9.61464C28.6835 10.5685 24.7905 9.55564 20.6765 9.88997C16.4095 10.244 13.273 12.6531 9.09099 13.5283C7.07649 13.9511 5.43599 14.8951 3.92299 16.4881C2.17199 18.3368 2.17199 21.336 3.92299 23.1846C3.92299 23.1846 8.98899 29.7435 10.5955 33.4605L70.257 32.841C70.2485 32.841 77.465 24.1778 78.1875 23.1846Z" fill="#A65900" fill-opacity="0.87"/>
<path d="M9.21849 36.0368L8.59799 34.6011C7.40799 31.8576 3.72749 26.8131 2.32499 24.9743C1.06699 23.5976 0.378494 21.7785 0.378494 19.8216C0.378494 17.8255 1.10099 15.9571 2.41849 14.5706C4.23749 12.6531 6.28599 11.483 8.69149 10.9815C10.349 10.6373 11.8365 10.0178 13.4175 9.35897C15.5765 8.46414 17.812 7.52998 20.515 7.30381C22.3255 7.15631 24.0595 7.24481 25.734 7.33331C28.012 7.45131 30.171 7.56931 32.313 7.06781C34.71 6.50731 38.399 5.02247 39.6145 4.53081C44.077 2.73131 47.783 1.69881 52.0075 1.07931C57.014 0.341807 64.2985 -0.179358 69.679 3.76381C72.365 5.73048 74.4475 8.30681 76.462 10.7946C77.55 12.132 78.5785 13.4005 79.6835 14.5706C82.191 17.2158 82.276 21.5326 79.8875 24.817C79.1395 25.8495 72.5945 33.7161 71.8465 34.6011L71.2005 35.378L9.21849 36.0368ZM22.572 12.3778C21.9855 12.3778 21.4075 12.3975 20.8295 12.4466C18.7385 12.6236 16.8855 13.3906 14.922 14.2068C13.239 14.905 11.4965 15.6326 9.48199 16.0555C7.88399 16.3898 6.62599 17.1076 5.41049 18.386C5.02799 18.7891 4.82399 19.3005 4.82399 19.8315C4.82399 20.3625 5.03649 20.8836 5.41049 21.277L5.57199 21.4638C5.75899 21.7096 9.77099 26.9213 11.879 30.8645L69.2965 30.2745C72.076 26.9311 76.037 22.1423 76.4875 21.5228C76.8105 21.0803 77.788 19.5266 76.6915 18.3761C75.459 17.0683 74.32 15.672 73.2235 14.315C71.311 11.955 69.509 9.73264 67.299 8.11014C63.134 5.05197 56.895 5.54364 52.5685 6.18281C48.616 6.76297 45.284 7.69714 41.0765 9.38847C38.8495 10.2833 35.611 11.5518 33.197 12.1123C30.5195 12.7318 27.9865 12.604 25.5385 12.4761C24.5185 12.427 23.541 12.3778 22.572 12.3778Z" fill="#212120"/>
<path d="M30.7065 21.2187C30.5365 21.2187 30.375 21.2187 30.2135 21.2116C10.876 20.6999 2.6395 18.6245 2.2995 18.5321L3.6085 14.9784C3.685 14.9998 11.7345 16.9969 30.358 17.4945C33.3925 17.5726 38.348 16.5918 43.1335 15.6394C47.8935 14.6942 52.8235 13.7133 56.7675 13.5499C60.363 13.4077 63.8055 14.019 67.129 14.616C71.1325 15.3338 74.9235 16.009 79.0885 15.5186L79.709 19.2002C74.762 19.783 70.41 19.0012 66.2025 18.2549C63.015 17.6864 59.9975 17.1462 56.98 17.267C53.444 17.4092 48.7265 18.3473 44.162 19.2571C39.0875 20.2592 34.2935 21.2187 30.7065 21.2187Z" fill="#212120"/>
<path d="M68.727 48.9676L50.095 47.4828C43.363 46.9518 36.614 46.9715 29.882 47.5516L13.3665 48.9676C10.281 48.9676 7.7735 46.0766 7.7735 42.4973V39.0556C7.7735 35.4861 10.2725 32.5853 13.3665 32.5853L29.882 31.1693C36.6055 30.5891 43.363 30.5695 50.095 31.1005L68.7355 32.5853C71.821 32.5853 74.3285 35.4763 74.3285 39.0556V42.4973C74.32 46.0766 71.821 48.9676 68.727 48.9676Z" fill="#A65900"/>
<path d="M68.727 51.544L68.574 51.5341L49.9335 50.0493C43.329 49.5281 36.6395 49.5478 30.035 50.1083L13.443 51.5341H13.358C9.04849 51.5341 5.54649 47.4828 5.54649 42.4973L5.54649 39.0556C5.54649 34.1095 9.006 30.0778 13.2645 30.0188L29.7035 28.6028C36.512 28.0128 43.4225 27.9931 50.231 28.534L68.795 30.009C73.062 30.0581 76.5215 34.0898 76.5215 39.0458V42.4875C76.5385 47.4828 73.0365 51.544 68.727 51.544ZM40.371 44.5328C43.669 44.5328 46.967 44.6606 50.2395 44.9261L68.795 46.4011C70.6225 46.3618 72.093 44.6311 72.093 42.5071V39.0655C72.093 36.9218 70.58 35.1715 68.727 35.1715L68.574 35.1616L49.9335 33.6768C43.329 33.1556 36.6395 33.1753 30.035 33.7358L13.443 35.1616H13.358C11.505 35.1616 9.99199 36.912 9.99199 39.0556V42.4973C9.99199 44.6213 11.4625 46.352 13.29 46.3913L29.712 44.9753C33.248 44.6803 36.818 44.5328 40.371 44.5328Z" fill="#212120"/>
<path d="M17.1893 50.9763C16.487 50.9763 15.9165 49.9538 15.9165 48.6954L15.9165 33.1748C15.9165 31.9164 16.487 30.8939 17.1893 30.8939C17.8915 30.8939 18.462 31.9164 18.462 33.1748V48.6954C18.4669 49.9538 17.8963 50.9763 17.1893 50.9763Z" fill="#212120"/>
<path d="M27.301 49.3707C26.8116 49.3707 26.414 48.4299 26.414 47.2721L26.414 32.9925C26.414 31.8346 26.8116 30.8939 27.301 30.8939C27.7903 30.8939 28.1879 31.8346 28.1879 32.9925L28.1879 47.2721C28.1879 48.4299 27.7903 49.3707 27.301 49.3707Z" fill="#212120"/>
<path d="M33.2807 47.4207C32.3289 47.4207 31.5556 46.5519 31.5556 45.4827L31.5556 32.2956C31.5556 31.2264 32.3289 30.3577 33.2807 30.3577C34.2325 30.3577 35.0058 31.2264 35.0058 32.2956V45.4827C35.0124 46.5519 34.2391 47.4207 33.2807 47.4207Z" fill="#212120"/>
<path d="M51.0607 48.6475C50.3168 48.6475 49.7125 47.7436 49.7125 46.6311V32.9103C49.7125 31.7978 50.3168 30.8939 51.0607 30.8939C51.8045 30.8939 52.4088 31.7978 52.4088 32.9103V46.6311C52.4088 47.7436 51.8045 48.6475 51.0607 48.6475Z" fill="#212120"/>
<path d="M63.0345 50.3786C61.9498 50.3786 61.0685 49.3865 61.0685 48.1656V33.1069C61.0685 31.886 61.9498 30.8939 63.0345 30.8939C64.1193 30.8939 65.0006 31.886 65.0006 33.1069V48.1656C65.0006 49.3865 64.1193 50.3786 63.0345 50.3786Z" fill="#212120"/>
</svg>
